# xmcd
#
# Track frame offsets: 
#        150
#        22280
#        43522
#        62115
#        90717
#        120332
#        148027
#        172430
#        194620
#        210715
#
# Disc length: 3184 seconds
#
# Revision: 0
# Processed by: cddbd v1.5.2PL0 Copyright (c) Steve Scherf et al.
# Submitted via: ExactAudioCopy v0.95b4
#
DISCID=9b0c6e0a
DTITLE=Walking Blues - The King of Sunset Town
DYEAR=1996
DGENRE=Blues
TTITLE0=Pick Pocket
TTITLE1=Keep My Blues Alive
TTITLE2=None of You
TTITLE3=Anger and Pain
TTITLE4=The King of Sunset Town
TTITLE5=No Money Blues
TTITLE6=Walking Blues
TTITLE7=Bad Times
TTITLE8=Love Is Here to Stay
TTITLE9=The Rain
EXTD=
EXTT0=
EXTT1=
EXTT2=
EXTT3=
EXTT4=
EXTT5=
EXTT6=
EXTT7=
EXTT8=
EXTT9=
PLAYORDER=
